<?xml version="1.0" encoding="UTF-8" standalone="no"?>
<!-- Created with Inkscape (http://www.inkscape.org/) -->

<svg
   xmlns:dc="http://purl.org/dc/elements/1.1/"
   xmlns:cc="http://creativecommons.org/ns#"
   xmlns:rdf="http://www.w3.org/1999/02/22-rdf-syntax-ns#"
   xmlns:svg="http://www.w3.org/2000/svg"
   xmlns="http://www.w3.org/2000/svg"
   xmlns:sodipodi="http://sodipodi.sourceforge.net/DTD/sodipodi-0.dtd"
   xmlns:inkscape="http://www.inkscape.org/namespaces/inkscape"
   width="348"
   height="348"
   id="svg2816"
   version="1.1"
   inkscape:version="0.48.5 r10040"
   sodipodi:docname="moon_background.svg">
  <defs
     id="defs2818">
    <inkscape:perspective
       sodipodi:type="inkscape:persp3d"
       inkscape:vp_x="0 : 24 : 1"
       inkscape:vp_y="0 : 1000 : 0"
       inkscape:vp_z="48 : 24 : 1"
       inkscape:persp3d-origin="24 : 16 : 1"
       id="perspective2824" />
    <inkscape:perspective
       id="perspective6892"
       inkscape:persp3d-origin="0.5 : 0.33333333 : 1"
       inkscape:vp_z="1 : 0.5 : 1"
       inkscape:vp_y="0 : 1000 : 0"
       inkscape:vp_x="0 : 0.5 : 1"
       sodipodi:type="inkscape:persp3d" />
    <clipPath
       clipPathUnits="userSpaceOnUse"
       id="clipPath4245">
      <path
         style="font-size:medium;font-style:normal;font-variant:normal;font-weight:normal;font-stretch:normal;text-indent:0;text-align:start;text-decoration:none;line-height:normal;letter-spacing:normal;word-spacing:normal;text-transform:none;direction:ltr;block-progression:tb;writing-mode:lr-tb;text-anchor:start;baseline-shift:baseline;color:#000000;fill:#000000;fill-opacity:1;stroke:none;stroke-width:3.5999999;marker:none;visibility:visible;display:inline;overflow:visible;enable-background:accumulate;font-family:Sans;-inkscape-font-specification:Sans"
         d="m 49.895534,-0.8559294 c -9.384894,0.8341053 -18.445403,5.1652233 -24.8125,12.9062504 -12.195691,14.82735 -10.316729,37.484731 4.625,49.75 14.285748,11.726792 36.078716,9.901512 47.874996,-4.5 11.25784,-13.744146 9.51767,-34.672776 -4.34375,-46 -13.20254,-10.7888094 -33.329413,-9.1339627 -44.187496,4.1875 -10.319709,12.660947 -8.687916,31.9549 4.09375,42.34375 12.11935,9.850524 30.549236,8.273303 40.468746,-3.96875 9.38124,-11.577755 7.89016,-29.143707 -3.8125,-38.59375 -11.036158,-8.9118445 -27.769565,-7.475999 -36.749996,3.6875 -8.442317,10.494574 -7.062138,26.395603 3.5625,34.90625 9.952989,7.972636 24.990596,6.648624 33.031246,-3.4375 7.50278,-9.41141 6.23553,-23.617079 -3.3125,-31.1875 -8.869834,-7.0327 -22.243863,-5.854188 -29.343746,3.15625 -6.562365,8.328275 -5.410976,20.871027 3.0625,27.5 7.786726,6.091715 19.467405,4.999797 25.624996,-2.9375 5.62068,-7.245194 4.62087,-18.095634 -2.78125,-23.78125 -6.703685,-5.149148 -16.724646,-4.180742 -21.937496,2.6875 -4.676998,6.162224 -3.773607,15.323475 2.5625,20.0625 5.620821,4.204034 13.955025,3.368873 18.218746,-2.4375 3.72999,-5.07952 2.93633,-12.588719 -2.343746,-16.375 -4.538402,-3.254435 -11.194447,-2.508944 -14.5,2.25 -2.776751,3.997638 -2.089825,9.836842 2.15625,12.65625 3.457653,2.295893 8.457883,1.653849 10.78125,-2.09375 1.810113,-2.91972 1.214881,-7.131306 -2.0625,-8.9375 -1.19454,-0.658322 -2.536553,-0.842934 -3.84375,-0.53125 -1.307197,0.311684 -2.603533,1.219705 -3.21875,2.65625 -0.408066,0.952842 -0.46097,1.942401 -0.125,2.9375 0.33597,0.995099 1.300587,2.086652 2.625,2.28125 1.106774,0.16262 1.58729,-0.139152 2.25,-0.6875 0.331355,-0.274174 0.739034,-0.703301 0.84375,-1.46875 0.104716,-0.765449 -0.325759,-1.60627 -0.78125,-2 a 1.80018,1.80018 0 0 0 -0.21875,-0.125 c 0.262355,0.02298 0.544565,-0.01947 0.75,0.09375 1.286533,0.70902 1.525851,2.604392 0.71875,3.90625 -1.164969,1.8791 -3.886203,2.206318 -5.75,0.96875 -2.450427,-1.627091 -2.835855,-5.175653 -1.15625,-7.59375 2.091692,-3.011371 6.469022,-3.503661 9.4375,-1.375 3.566526,2.557511 4.113516,7.795952 1.53125,11.3125 -3.024016,4.118128 -9.09312,4.726476 -13.15625,1.6875 -4.667413,-3.490943 -5.34165,-10.391308 -1.84375,-15 3.958149,-5.215098 11.721478,-5.958454 16.874996,-2 5.76164,4.425549 6.54525,13.020942 2.125,18.71875 -4.893086,6.307318 -14.320817,7.164243 -20.562496,2.28125 -6.852353,-5.360736 -7.783999,-15.621026 -2.4375,-22.40625 5.828462,-7.396882 16.952739,-8.404365 24.281246,-2.59375 7.94101,6.296252 8.99398,18.253413 2.71875,26.125 -6.76409,8.484812 -19.554255,9.615254 -27.968746,2.875 -9.02835,-7.231973 -10.236874,-20.8865 -3.03125,-29.84375 7.699889,-9.571668 22.187611,-10.827534 31.687496,-3.15625 10.1148,8.167833 11.4497,23.520075 3.3125,33.5625 -8.6358,10.657778 -24.821373,12.009562 -35.406246,3.40625 -11.200621,-9.103788 -12.632117,-26.122754 -3.5625,-37.25 9.571793,-11.7433508 27.424198,-13.2235827 39.093746,-3.6875 12.28598,10.039813 13.84644,28.7257 3.84375,40.9375 -10.50784,12.828523 -30.058499,14.469418 -42.812496,4 -13.37099,-10.975891 -15.061258,-31.391351 -4.125,-44.6875 11.443946,-13.9133895 32.692986,-15.6531962 46.531246,-4.25 2.85816,2.355219 5.33568,5.190859 7.28125,8.34375 a 1.80018,1.80018 0 1 0 3.0625,-1.875 C 82.58571,13.060365 79.84293,9.9093346 76.67678,7.3003206 68.99231,0.9680516 59.280428,-1.6900347 49.895534,-0.8559294 z"
         id="path4247"
         inkscape:connector-curvature="0" />
    </clipPath>
  </defs>
  <sodipodi:namedview
     id="base"
     pagecolor="#ffffff"
     bordercolor="#666666"
     borderopacity="1.0"
     inkscape:pageopacity="0.0"
     inkscape:pageshadow="2"
     inkscape:zoom="1.15"
     inkscape:cx="6.0521965"
     inkscape:cy="234.40083"
     inkscape:current-layer="g6900"
     showgrid="true"
     inkscape:grid-bbox="true"
     inkscape:document-units="px"
     inkscape:window-width="1366"
     inkscape:window-height="713"
     inkscape:window-x="0"
     inkscape:window-y="28"
     inkscape:window-maximized="1"
     showguides="true"
     inkscape:guide-bbox="true" />
  <metadata
     id="metadata2821">
    <rdf:RDF>
      <cc:Work
         rdf:about="">
        <dc:format>image/svg+xml</dc:format>
        <dc:type
           rdf:resource="http://purl.org/dc/dcmitype/StillImage" />
        <dc:title />
      </cc:Work>
    </rdf:RDF>
  </metadata>
  <g
     id="layer1"
     inkscape:label="Layer 1"
     inkscape:groupmode="layer"
     transform="translate(0,300)">
    <g
       id="g6900"
       transform="translate(-15.571428,0)">
      <path
         style="opacity:0.08;fill:#000000;fill-opacity:1;stroke:none"
         clip-path="url(#clipPath4245)"
         d="m 39.602678,4.0625 c -0.755447,0 -1.485062,0.043431 -2.21875,0.125 7.855807,0.9716508 13.9375,7.662531 13.9375,15.78125 0,8.786797 -7.119454,15.90625 -15.90625,15.90625 -7.990183,0 -14.585081,-5.887435 -15.71875,-13.5625 -0.04933,0.572918 -0.09375,1.164299 -0.09375,1.75 0,11.046258 8.953742,20 20,20 11.046258,0 20,-8.953742 20,-20 0,-11.046258 -8.953742,-20 -20,-20 z"
         id="path3917"
         inkscape:connector-curvature="0"
         transform="matrix(8.5,0,0,8.5,-147.02008,-330.46875)" />
    </g>
  </g>
</svg>
